<?xml version="1.0" encoding="UTF-8"?>
<svg width="9px" height="9px" viewBox="0 0 9 9" version="1.1" xmlns="http://www.w3.org/2000/svg" xmlns:xlink="http://www.w3.org/1999/xlink">
    <!-- Generator: Sketch 52.4 (67378) - http://www.bohemiancoding.com/sketch -->
    <title>带采购</title>
    <desc>Created with Sketch.</desc>
    <g id="贸易小程序1.0-三稿" stroke="none" stroke-width="1" fill="none" fill-rule="evenodd">
        <g id="物流进度信息-展开" transform="translate(-124.000000, -515.000000)" fill="#FFFFFF" fill-rule="nonzero">
            <g id="带采购" transform="translate(124.000000, 515.000000)">
                <path d="M8.35948052,2.57142053 L2.93610389,2.57142053 C2.65371218,2.56067256 2.41117862,2.36740424 2.33766233,2.09453891 L1.93090909,0.645192791 C1.88056239,0.304954304 1.60855188,0.0406068886 1.26701299,0 L0,0 L0,0.645192791 L0.771428574,0.645192791 C1.23896104,0.645192791 1.34181819,0.897659531 1.44467532,1.30908681 L2.54337662,5.83011164 C2.60528457,6.1586017 2.87883682,6.40537184 3.21194805,6.43322663 L7.71428572,6.43322663 L9,3.23063924 C9,3.00154905 9,2.57609584 8.3548052,2.57609584 L8.35948052,2.57142053 Z M7.27948052,5.78803384 L3.24467533,5.78803384 L2.56207793,3.1605096 C2.68475737,3.19821348 2.8124376,3.21712901 2.94077922,3.21661332 L8.3174026,3.21661332 L7.27948052,5.78803384 Z M3.53922078,7.07374411 C3.00730601,7.07374411 2.57610389,7.50494487 2.57610389,8.03685798 C2.57610389,8.56877108 3.00730601,8.99997185 3.53922078,8.99997185 C4.07113555,8.99997185 4.50233766,8.56877108 4.50233766,8.03685798 C4.50233766,7.50494487 4.07113555,7.07374411 3.53922078,7.07374411 Z M3.53922078,8.35945437 C3.4106333,8.35945437 3.29470738,8.28199538 3.24549908,8.16319642 C3.19629078,8.04439745 3.22349085,7.90765393 3.31441592,7.81672914 C3.405341,7.72580434 3.54208495,7.69860437 3.66088429,7.74781251 C3.77968363,7.79702065 3.85714285,7.91294621 3.85714285,8.04153329 C3.85714285,8.21711625 3.71480429,8.35945437 3.53922078,8.35945437 Z M6.74649351,7.07374411 C6.35694909,7.07374411 6.00576172,7.30839927 5.85668953,7.66829025 C5.70761733,8.02818124 5.79001753,8.44243369 6.06546703,8.71788233 C6.34091652,8.99333096 6.75517027,9.0757309 7.11506238,8.92665917 C7.47495449,8.77758744 7.70961039,8.42640118 7.70961039,8.03685798 C7.70961039,7.50494487 7.27840827,7.07374411 6.74649351,7.07374411 Z M6.74649351,8.35945437 C6.57090999,8.35945436 6.42857144,8.21711625 6.42857144,8.04153328 C6.42857144,7.86595032 6.57091001,7.72361221 6.74649352,7.72361221 C6.92207703,7.72361221 7.06441559,7.86595033 7.06441559,8.04153329 C7.06441559,8.1258512 7.03092032,8.20671567 6.97129837,8.26633744 C6.91167641,8.32595921 6.83081168,8.35945437 6.74649351,8.35945437 Z" id="形状"></path>
            </g>
        </g>
    </g>
</svg>