<?xml version="1.0" encoding="UTF-8"?>
<svg width="34px" height="34px" viewBox="0 0 34 34" version="1.1" xmlns="http://www.w3.org/2000/svg" xmlns:xlink="http://www.w3.org/1999/xlink">
    <!-- Generator: Sketch 52.4 (67378) - http://www.bohemiancoding.com/sketch -->
    <title>分组 4</title>
    <desc>Created with Sketch.</desc>
    <g id="贸易小程序1.0-三稿" stroke="none" stroke-width="1" fill="none" fill-rule="evenodd">
        <g id="订单详情-待确认" transform="translate(-15.000000, -80.000000)">
            <g id="分组-4" transform="translate(15.000000, 80.000000)">
                <circle id="椭圆形" fill="#218CFF" cx="17" cy="17" r="17"></circle>
                <g id="wuliuche" transform="translate(5.000000, 12.000000)" fill="#FFFFFF">
                    <path d="M3.75000001,4 L5,4 L5,4.75000002 L3.75000001,4.75000002 L3.75000001,4 Z M0,6.24999998 L5,6.24999998 L5,7 L0,7 L0,6.24999998 Z" id="形状" fill-rule="nonzero"></path>
                    <path d="M9,9.5 C9,10.3284271 9.67157288,11 10.5,11 C11.3284271,11 12,10.3284271 12,9.5 C12,8.67157288 11.3284271,8 10.5,8 C9.67157288,8 9,8.67157288 9,9.5 Z" id="路径"></path>
                    <path d="M17,9.5 C17,10.3284271 17.6715729,11 18.5,11 C19.3284271,11 20,10.3284271 20,9.5 C20,8.67157288 19.3284271,8 18.5,8 C17.6715729,8 17,8.67157288 17,9.5 Z" id="路径"></path>
                    <path d="M21.5625,5.06622516 L20.25,2.80132452 C19.9375,2.50331126 19.9375,2.38410598 19.5,2.38410595 L17,2.38410595 L17,0.596026481 C17,0.298013227 16.6875,0 16.375,0 L5.75,0 C5.43749999,0 5.12500001,0.238410587 5.12500001,0.596026481 L5.12500001,8.40397352 C5.12500001,8.70198677 5.43750002,9 5.75,9 L8.24999999,9 C8.43749999,8.22516557 9.06249998,7.21192053 10.125,7.21192053 L10.75,7.21192053 C11.75,7.33112584 12.5,8.04635762 12.625,9 L16.375,9 C16.375,8.04635762 17.25,7.21192053 18.25,7.21192053 L18.875,7.21192053 C19.875,7.27152317 20.6875,8.04635762 20.75,9 L21.375,9 C21.6875,9 22,8.70198675 22,8.40397352 L22,6.31788079 C21.9375,5.84105959 21.8125,5.42384106 21.5625,5.06622516 Z M20.125,5.9602649 L17.625,5.9602649 L17.625,3.57615894 L18.875,3.57615894 L20.125,5.36423842 L20.125,5.9602649 Z M2,2.38410595 L5.12500001,2.38410595 L5.12500001,2.98013246 L2,2.98013246 L2,2.38410595 Z" id="形状" fill-rule="nonzero"></path>
                </g>
            </g>
        </g>
    </g>
</svg>