<?xml version="1.0" standalone="no"?><!DOCTYPE svg PUBLIC "-//W3C//DTD SVG 1.1//EN" "http://www.w3.org/Graphics/SVG/1.1/DTD/svg11.dtd"><svg t="1554082789765" class="icon" style="" viewBox="0 0 1024 1024" version="1.1" xmlns="http://www.w3.org/2000/svg" p-id="1119" xmlns:xlink="http://www.w3.org/1999/xlink" width="200" height="200"><defs><style type="text/css"></style></defs><path d="M887.430737 140.988632c-8.892632 0.323368-17.569684 0.431158-26.085053 0.431157-223.986526 0-322.721684-97.010526-323.584-97.926736l-22.312421-23.174737-22.474105 23.174737C492.058947 44.517053 395.317895 141.419789 169.445053 141.419789c-8.569263 0-17.246316-0.107789-26.138948-0.431157l-31.474526-1.024v440.050526c0 115.173053 40.744421 283.216842 392.515368 411.809684l10.994527 4.042105 10.994526-4.042105c351.824842-128.592842 392.515368-296.636632 392.515368-411.809684V139.964632l-31.420631 1.024zM480.741053 693.840842L278.042947 513.185684l53.894737-43.816421 107.789474 79.97979s148.749474-154.839579 292.486737-227.166316l20.48 23.228631s-179.577263 149.719579-271.898948 348.429474z" fill="#5186F4" p-id="1120"></path></svg>