<?xml version="1.0" encoding="UTF-8"?>
<svg width="9px" height="9px" viewBox="0 0 9 9" version="1.1" xmlns="http://www.w3.org/2000/svg" xmlns:xlink="http://www.w3.org/1999/xlink">
    <!-- Generator: Sketch 52.4 (67378) - http://www.bohemiancoding.com/sketch -->
    <title>待调度</title>
    <desc>Created with Sketch.</desc>
    <g id="贸易小程序1.0-三稿" stroke="none" stroke-width="1" fill="none" fill-rule="evenodd">
        <g id="物流进度信息-展开" transform="translate(-124.000000, -570.000000)" fill="#FFFFFF" fill-rule="nonzero">
            <g id="待调度" transform="translate(124.000000, 570.000000)">
                <path d="M5,2.29985944 L5,4.99578323 C5,5.16164298 5.12814338,5.29564267 5.28675441,5.29564267 C5.44536544,5.29564267 5.57350882,5.16164298 5.57350882,4.99578323 L5.57350882,2.29985944 C5.57350882,2.13399969 5.44536544,2 5.28675441,2 C5.12814338,2 5,2.13399969 5,2.29985944 Z M8.91598992,5.98906762 L7.47952954,4.48695924 C7.3675161,4.36982664 7.18560627,4.36982664 7.07359283,4.48695924 C6.96157939,4.60409183 6.96157939,4.79431516 7.07359283,4.91144776 L8.3075329,6.20178042 L7.07807337,7.48742777 C6.96605993,7.60456036 6.96605993,7.7947837 7.07807337,7.91191629 C7.13363204,7.97001406 7.20711285,8 7.28059367,8 C7.35407449,8 7.42755531,7.97095112 7.48311397,7.91191629 L8.91598992,6.41355615 C9.02800336,6.29642355 9.02800336,6.10620022 8.91598992,5.98906762 Z" id="形状"></path>
                <path d="M3.2492891,2.15505693 L4.54976303,0.776624246 L5.8549763,2.16008038 C5.91374408,2.22237106 5.99146919,2.2545211 6.06919431,2.2545211 C6.14691943,2.2545211 6.22464455,2.22337575 6.28341232,2.16008038 C6.40189573,2.03449431 6.40189573,1.83054253 6.28341232,1.70495646 L4.76492891,0.0944407234 C4.70805687,0.0341594106 4.63127962,0 4.5507109,0 C4.47014218,0 4.39336493,0.0341594106 4.33649289,0.0944407234 L2.82085308,1.70093771 C2.70236967,1.82652378 2.70236967,2.03047555 2.82085308,2.15606162 C2.93933649,2.280643 3.13080569,2.280643 3.2492891,2.15505693 Z M2.74028436,7.07200268 C2.57251185,7.07200268 2.43696682,7.21567314 2.43696682,7.39350301 L2.43696682,8.67849967 C2.43696682,8.85632954 2.57251185,9 2.74028436,9 C2.90805687,9 3.0436019,8.85632954 3.0436019,8.67849967 L3.0436019,7.39350301 C3.0436019,7.21567314 2.907109,7.07200268 2.74028436,7.07200268 Z M4.56208531,7.07200268 C4.3943128,7.07200268 4.25876777,7.21567314 4.25876777,7.39350301 L4.25876777,8.67849967 C4.25876777,8.85632954 4.3943128,9 4.56208531,9 C4.72985782,9 4.86540284,8.85632954 4.86540284,8.67849967 L4.86540284,7.39350301 C4.86540284,7.21567314 4.72985782,7.07200268 4.56208531,7.07200268 Z M7,6.10951105 C7,5.93168118 6.86445498,5.78801072 6.69668246,5.78801072 C6.64834123,5.78801072 1.87582938,5.78700603 1.68530806,5.78600134 C1.08056872,5.75284662 0.606635071,5.22438044 0.606635071,4.58037508 C0.606635071,3.91426658 1.11753555,3.37273945 1.74597156,3.37273945 C2.37440758,3.37273945 2.88530806,3.91426658 2.88530806,4.58037508 C2.88530806,4.70596115 2.86729858,4.82853315 2.83222749,4.94608171 C2.78104265,5.11486939 2.87014218,5.29571333 3.02938389,5.34996651 C3.18862559,5.403215 3.35924171,5.30977897 3.41042654,5.14099129 C3.46445498,4.96014735 3.49194313,4.77126591 3.49194313,4.58037508 C3.49194313,3.55961152 2.70900474,2.72973878 1.74597156,2.72973878 C0.782938389,2.72973878 0,3.56061621 0,4.58137977 C0,5.05961152 0.171563981,5.51373074 0.483412322,5.86034829 C0.794312796,6.20495646 1.21232227,6.40689886 1.66066351,6.4300067 C1.69668246,6.43201608 6.64549763,6.43201608 6.6957346,6.43201608 C6.86350711,6.43101139 7,6.28734092 7,6.10951105 Z" id="形状"></path>
            </g>
        </g>
    </g>
</svg>