<?xml version="1.0" encoding="UTF-8"?>
<svg width="9px" height="10px" viewBox="0 0 9 10" version="1.1" xmlns="http://www.w3.org/2000/svg" xmlns:xlink="http://www.w3.org/1999/xlink">
    <!-- Generator: Sketch 52.4 (67378) - http://www.bohemiancoding.com/sketch -->
    <title>待对账</title>
    <desc>Created with Sketch.</desc>
    <g id="贸易小程序1.0-三稿" stroke="none" stroke-width="1" fill="none" fill-rule="evenodd">
        <g id="物流进度信息-展开" transform="translate(-124.000000, -352.000000)" fill="#FFFFFF">
            <g id="待对账" transform="translate(124.000000, 352.000000)">
                <path d="M4.65694444,10 C4.42638889,10 4.19444444,9.96645196 3.96388889,9.88727858 C3.35833333,9.67659689 3.04861111,9.37198068 2.77638889,9.10359635 C2.49027778,8.82045089 2.24166667,8.57756307 1.63888889,8.42592593 C1.07638889,8.28502415 0.656944444,8.14814815 0.390277778,8.01663983 C0.1875,7.91733763 0.0763888889,7.82474503 0.0277777778,7.71470746 C0.00972222222,7.67444981 0.00138888889,7.63150832 0.00138888889,7.58856683 L0,0.88835212 C0,0.398550725 0.398611111,0 0.888888889,0 L8.11111111,0 C8.60138889,0 9,0.398550725 9,0.887010199 L9,9.41760601 C9,9.54911433 8.93055556,9.66317767 8.81388889,9.72356414 C8.69583333,9.78395062 8.56527778,9.77589909 8.42638889,9.70075148 C8.38194444,9.67659689 8.33333333,9.64573269 8.27777778,9.60815888 C8.05833333,9.46591519 7.69027778,9.22705314 7.29722222,9.25791734 C7.075,9.27536232 6.75694444,9.4041868 6.41944444,9.5410628 C5.9,9.7517445 5.2875,10 4.65694444,10 Z M0.668055556,7.43022008 C0.797222222,7.49731616 1.10833333,7.62748256 1.80555556,7.80193237 C2.5875,7.99785293 2.94027778,8.34541063 3.25138889,8.65136876 C3.50694444,8.90230811 3.72638889,9.11969941 4.18888889,9.27938808 C4.80833333,9.49409554 5.52777778,9.20289855 6.16111111,8.94659152 C6.54861111,8.78958669 6.91388889,8.64197531 7.24166667,8.6164788 C7.675,8.58293076 8.05138889,8.72920021 8.33333333,8.88217928 L8.33333333,0.887010199 C8.33333333,0.752818035 8.23333333,0.644122383 8.11111111,0.644122383 L0.888888889,0.644122383 C0.766666667,0.644122383 0.666666667,0.752818035 0.666666667,0.887010199 L0.668055556,7.43022008 Z" id="形状" fill-rule="nonzero"></path>
                <polygon id="路径" points="2 2 3.1421875 2 4.5 4.58 5.8578125 2 7 2 5.3140625 4.949 6.4640625 4.949 6.4640625 5.471 5.0109375 5.471 5.003125 5.4785 5.003125 6.2015 6.465625 6.2015 6.465625 6.722 5.003125 6.722 5.003125 8 4 8 4 6.722 2.5453125 6.722 2.5453125 6.2 3.9984375 6.2 3.9984375 5.477 3.990625 5.4695 2.546875 5.4695 2.546875 4.9475 3.6890625 4.9475"></polygon>
            </g>
        </g>
    </g>
</svg>