<?xml version="1.0" encoding="UTF-8"?>
<svg width="17px" height="17px" viewBox="0 0 17 17" version="1.1" xmlns="http://www.w3.org/2000/svg" xmlns:xlink="http://www.w3.org/1999/xlink">
    <!-- Generator: Sketch 52.4 (67378) - http://www.bohemiancoding.com/sketch -->
    <title>icon02</title>
    <desc>Created with Sketch.</desc>
    <g id="贸易小程序1.0-三稿" stroke="none" stroke-width="1" fill="none" fill-rule="evenodd">
        <g id="创建订单-已选择" transform="translate(-343.000000, -78.000000)" fill="#218CFF" fill-rule="nonzero">
            <g id="icon02" transform="translate(343.000000, 78.000000)">
                <path d="M8.49997982,17 C3.80557435,17 0,13.1942009 0,8.49985875 C0,3.80551659 3.80557435,0 8.49997982,0 C13.1944256,0 17,3.80551659 17,8.49985875 C17,13.1942009 13.1944256,17 8.49997982,17 Z M8.49997982,1.062442 C4.39232964,1.062442 1.06251262,4.39226901 1.06251262,8.49985875 C1.06251262,12.6074485 4.39232962,15.9373159 8.49997982,15.9373159 C12.60763,15.9373159 15.937447,12.6074485 15.937447,8.49985875 C15.937447,4.39226899 12.60763,1.062442 8.49997982,1.062442 Z M11.6874773,9.03120081 L9.03127649,9.03120081 L9.03127649,11.6874269 C9.03127649,11.9806618 8.793418,12.2185671 8.50002018,12.2185671 C8.20662235,12.2185671 7.96880423,11.9806618 7.96880423,11.6874269 L7.96880423,9.03120081 L5.3125227,9.03120081 C5.01912487,9.03120081 4.78126639,8.79333586 4.78126639,8.49985875 C4.78126639,8.20658344 5.01916523,7.96871846 5.3125227,7.96871846 L7.96880423,7.96871846 L7.96880423,5.31237134 C7.96880423,5.01913639 8.20666271,4.78135213 8.50002018,4.78135213 C8.79345836,4.78135213 9.03127649,5.01909601 9.03127649,5.31237134 L9.03127649,7.96871846 L11.6874773,7.96871846 C11.9809155,7.96871846 12.2187336,8.20658342 12.2187336,8.49985875 C12.2187336,8.79333586 11.9809155,9.03120081 11.6874773,9.03120081 Z" id="形状"></path>
            </g>
        </g>
    </g>
</svg>