<?xml version="1.0" encoding="UTF-8"?>
<svg width="8px" height="8px" viewBox="0 0 8 8" version="1.1" xmlns="http://www.w3.org/2000/svg" xmlns:xlink="http://www.w3.org/1999/xlink">
    <!-- Generator: Sketch 52.4 (67378) - http://www.bohemiancoding.com/sketch -->
    <title>待确认</title>
    <desc>Created with Sketch.</desc>
    <g id="贸易小程序1.0-三稿" stroke="none" stroke-width="1" fill="none" fill-rule="evenodd">
        <g id="物流进度信息-展开" transform="translate(-125.000000, -624.000000)" fill="#FFFFFF" fill-rule="nonzero">
            <g id="待确认" transform="translate(125.000000, 624.000000)">
                <path d="M8,8 L0.00157378142,8 C-0.0371595175,5.90865935 0.639059325,4.50123624 2.0318442,3.78182598 C-0.0871900285,2.59281965 -0.0597539418,0.452335231 0.0338515305,0.0346131438 C0.375995671,0.0400735632 7.19789794,-0.0459280429 7.84990847,0.0346131438 C7.92576118,0.425033134 7.74500578,2.64878895 5.68568539,3.76817494 C7.14948131,4.36745597 7.9225334,5.77760929 8,8 Z M0.651970425,0.502844111 C0.639059325,0.924661512 0.705228711,2.72386972 2.72258803,3.40369194 L2.72258803,4.14630898 C1.76232499,4.52580813 0.764942547,5.43223776 0.651970425,7.50173673 C2.23035235,7.47443463 7.27052287,7.4676091 7.27052287,7.50173673 C7.2931173,6.78505667 6.83638715,4.64047694 5.02721931,4.14630898 C5.02721931,3.88830416 5.04497207,3.38185026 5.04497207,3.38185026 C5.83093526,3.16479859 7.28827563,2.36757735 7.27052287,0.502844111 C5.4145523,0.51376495 1.74457223,0.496018586 0.651970425,0.502844111 Z" id="形状"></path>
            </g>
        </g>
    </g>
</svg>