<?xml version="1.0" encoding="UTF-8"?>
<svg width="80px" height="80px" viewBox="0 0 80 80" version="1.1" xmlns="http://www.w3.org/2000/svg" xmlns:xlink="http://www.w3.org/1999/xlink">
    <!-- Generator: Sketch 52.4 (67378) - http://www.bohemiancoding.com/sketch -->
    <title>成功</title>
    <desc>Created with Sketch.</desc>
    <g id="贸易小程序1.0-三稿" stroke="none" stroke-width="1" fill="none" fill-rule="evenodd">
        <g id="订单详情-接单成功" transform="translate(-147.000000, -172.000000)" fill="#218CFF">
            <g id="分组-4" transform="translate(110.000000, 172.000000)">
                <g id="成功" transform="translate(37.000000, 0.000000)">
                    <path d="M40,80 C17.9464286,80 0,62.0647321 0,40 C0,17.9464286 17.9464286,0 40,0 C62.0535714,0 80,17.9464286 80,40 C80,62.0647321 62.0535714,80 40,80 Z M40,5.74776789 C21.1049107,5.74776789 5.73660711,21.1160715 5.73660711,40.0111607 C5.73660711,58.8950893 21.1049107,74.2745536 40,74.2745536 C58.8839286,74.2745536 74.2633929,58.90625 74.2633928,40.0111607 C74.2633927,21.1160714 58.8839285,5.74776781 40,5.74776789 Z" id="形状" fill-rule="nonzero"></path>
                    <path d="M58.3997841,29.4662998 C57.2652768,28.3580269 55.4160299,28.3691096 54.2928677,29.4884653 L33.1229619,50.4015756 L23.7519318,40.9923384 C22.6287696,39.8619 20.7908679,39.8508173 19.6450155,40.9369247 C18.4991632,42.0341149 18.465128,43.8295171 19.5882902,44.9488728 L31.0241235,56.4305805 C31.0354686,56.4416632 31.0468136,56.4416632 31.0468136,56.4527459 C31.0581587,56.4638286 31.0581587,56.4749113 31.0581587,56.4749113 C31.2396798,56.652235 31.4665813,56.7630623 31.6821377,56.8738897 C31.7955884,56.9293033 31.886349,57.0290479 31.9997997,57.0733787 C32.3514969,57.2174542 32.7258844,57.2839506 33.1002718,57.2839506 C33.4746592,57.2839506 33.8377015,57.2174542 34.1893988,57.0733787 C34.3028495,57.0290478 34.3936101,56.940386 34.4957158,56.8849724 C34.7112722,56.7630623 34.9381736,56.6633178 35.1310399,56.4859941 C35.1423849,56.4749114 35.1423849,56.4638287 35.15373,56.4638286 L35.1764201,56.4416632 L58.4338193,33.4782479 C59.5456364,32.3588922 59.5342913,30.56349 58.3997841,29.4662998 Z" id="路径"></path>
                </g>
            </g>
        </g>
    </g>
</svg>