<?xml version="1.0" encoding="UTF-8"?>
<svg width="12px" height="9px" viewBox="0 0 12 9" version="1.1" xmlns="http://www.w3.org/2000/svg" xmlns:xlink="http://www.w3.org/1999/xlink">
    <!-- Generator: Sketch 52.4 (67378) - http://www.bohemiancoding.com/sketch -->
    <title>已完成</title>
    <desc>Created with Sketch.</desc>
    <g id="贸易小程序1.0-三稿" stroke="none" stroke-width="1" fill="none" fill-rule="evenodd">
        <g id="物流进度信息-展开" transform="translate(-123.000000, -298.000000)" fill="#FFFFFF">
            <g id="分组-2" transform="translate(119.000000, 293.000000)">
                <g id="已完成" transform="translate(4.000000, 5.000000)">
                    <path d="M4.76895008,7.41554283 L1.46648487,4.11199908 C1.23879575,3.8842356 0.869044205,3.8842356 0.641355079,4.11199908 C0.413665954,4.33976257 0.413665954,4.70963487 0.641355079,4.93739833 L3.94382029,8.24094209 C4.17150942,8.46870558 4.54126096,8.46870558 4.76895008,8.24094209 C4.99858527,8.01512532 4.99858527,7.645253 4.76895008,7.41554283 Z" id="路径"></path>
                    <path d="M11.5081885,0.725919445 C11.3245973,0.542340577 11.0264577,0.542340577 10.8428665,0.725919445 L5.96122284,5.60880331 C5.7776316,5.79238218 5.7776316,6.09050169 5.96122284,6.27408056 C6.14481407,6.45765942 6.44295366,6.45765942 6.62654489,6.27408056 L11.5081885,1.39276573 C11.6933489,1.20761782 11.6933489,0.909498313 11.5081885,0.725919445 Z" id="路径"></path>
                </g>
            </g>
        </g>
    </g>
</svg>