<?xml version="1.0" encoding="UTF-8"?>
<svg width="7px" height="9px" viewBox="0 0 7 9" version="1.1" xmlns="http://www.w3.org/2000/svg" xmlns:xlink="http://www.w3.org/1999/xlink">
    <!-- Generator: Sketch 52.4 (67378) - http://www.bohemiancoding.com/sketch -->
    <title>待卸货</title>
    <desc>Created with Sketch.</desc>
    <g id="贸易小程序1.0-三稿" stroke="none" stroke-width="1" fill="none" fill-rule="evenodd">
        <g id="物流进度信息-展开" transform="translate(-125.000000, -407.000000)" fill="#FFFFFF" fill-rule="nonzero">
            <g id="待卸货" transform="translate(125.000000, 407.000000)">
                <path d="M6.97899714,4.80822497 L6.35203225,3.01421695 C6.30696211,2.88564305 6.18869413,2.79965106 6.05621078,2.79965106 L5.38765601,2.79965106 C5.21396371,2.79965106 5.07301348,2.9453793 5.07301348,3.12492283 C5.07301348,3.30451923 5.21401565,3.44990385 5.38765601,3.44990385 L5.83521475,3.44990385 L6.23733109,4.5998706 L0.762703454,4.5998706 L1.16486308,3.44990385 L1.61243048,3.44990385 C1.78621801,3.44990385 1.92706435,3.30451923 1.92706435,3.12492283 C1.92706435,2.94537048 1.78622667,2.79965106 1.61243048,2.79965106 L0.943858388,2.79965106 C0.811288472,2.79965106 0.693055118,2.88564305 0.647950353,3.01421695 L0.0209768058,4.80837475 C0.00708421326,4.84566828 -2.38311265e-05,4.88522346 6.0026064e-08,4.92510713 L6.0026064e-08,8.67482514 C6.0026064e-08,8.85441273 0.14100223,9 0.314677218,9 L6.6853227,9 C6.8589544,9 6.99999985,8.85442154 6.99999985,8.67482514 L6.99999985,4.92509832 C7.00003724,4.88516439 6.99291692,4.84555843 6.97898848,4.80822497 L6.97899714,4.80822497 Z M0.629337062,8.3497472 L0.629337062,5.25033485 L6.37084466,5.25033485 L6.37084466,8.3497472 L0.629337062,8.3497472 Z M4.52248429,7.20136638 L2.47749831,7.20136638 C2.30386661,7.20136638 2.16302027,6.97939073 2.16302027,6.7999353 C2.16302027,6.62027722 2.30387527,6.37289164 2.47749831,6.37289164 L4.52248429,6.37289164 C4.69616793,6.37289164 4.83700561,6.62028603 4.83700561,6.79994411 C4.83701427,6.97939073 4.69616793,7.20136638 4.52248429,7.20136638 Z M4.32211005,0.0035807591 C4.31697624,0.0035807591 4.28271913,0.00188911327 4.27762861,0.00224153948 C4.19107248,0.0108583604 4.07506407,0.0896256196 4.08332317,0.178912801 L4.24058384,2.00494756 C4.24841008,2.08805847 4.31614514,2.15197097 4.39722117,2.15197097 L4.72109243,2.15197097 L3.50019042,3.36246691 L2.3072776,2.15197097 L2.57069462,2.15197097 C2.651762,2.15197097 2.71950572,2.08805847 2.72727136,2.00494756 L2.88450605,0.204868992 C2.90027973,0.119863789 2.79536137,0.0153165521 2.69097111,0.00224153948 C2.52875845,-0.0179965359 2.4450073,0.10360813 2.43282641,0.173740947 L2.28928764,1.74024023 L1.75009091,1.74024023 C1.68620837,1.74024023 1.62865434,1.78012607 1.60440512,1.84121034 C1.58036367,1.90209197 1.54337084,2.01423399 1.63978768,2.10521282 L3.38968807,3.88339691 C3.41889672,3.91326993 3.458599,3.93006484 3.50000861,3.93006484 C3.54141822,3.93006484 3.58112051,3.91326993 3.61032916,3.88339691 L5.36022954,2.10521282 C5.42912469,2.04671007 5.41427735,1.90224175 5.3902359,1.84129845 C5.36608191,1.78024061 5.30857117,1.74039001 5.24464534,1.74039001 L4.66004949,1.74039001 L4.52169647,0.147723081 C4.51568827,0.0806299404 4.42326246,-0.0018289833 4.32211005,0.0035807591 Z" id="形状"></path>
            </g>
        </g>
    </g>
</svg>