<?xml version="1.0" encoding="UTF-8"?>
<svg width="9px" height="8px" viewBox="0 0 9 8" version="1.1" xmlns="http://www.w3.org/2000/svg" xmlns:xlink="http://www.w3.org/1999/xlink">
    <!-- Generator: Sketch 52.4 (67378) - http://www.bohemiancoding.com/sketch -->
    <title>待装货</title>
    <desc>Created with Sketch.</desc>
    <g id="贸易小程序1.0-三稿" stroke="none" stroke-width="1" fill="none" fill-rule="evenodd">
        <g id="物流进度信息-展开" transform="translate(-124.000000, -462.000000)" fill="#FFFFFF" fill-rule="nonzero">
            <g id="待装货" transform="translate(124.000000, 462.000000)">
                <path d="M3.83189289,7.11724451 C3.83189289,7.5069072 3.55011279,7.86718866 3.11540152,7.97018355 C2.60018164,8.09517425 2.06887763,7.81581162 1.93203059,7.3452301 C1.83754015,7.03341997 1.93981987,6.69945662 2.19772654,6.47768071 L0.885506694,2.00715623 L0,1.54396016 L0.322034395,1.03661194 L1.43298274,1.62479871 L2.79345501,6.24230967 C3.10624892,6.22148243 3.41024703,6.34251212 3.60645123,6.56598498 L8.83098468,5.28661655 L9,5.85280753 L3.83189289,7.11724451 Z M2.06887763,1.49980802 C2.02053731,1.34543609 2.12521607,1.1836787 2.29431928,1.13952657 L6.92312425,0.00738544868 C6.94729441,0 6.97946269,0 7.00363285,0 C7.15060287,0.00055505273 7.27901284,0.0908194896 7.31722966,0.220439588 L8.5572906,4.44820758 C8.60563091,4.60257951 8.50095216,4.76433689 8.33184894,4.80848903 L3.70304398,5.93348553 C3.67887382,5.94087098 3.64670553,5.94087098 3.62253538,5.94087098 C3.47538452,5.94044075 3.34677191,5.85006933 3.308587,5.72027083 L2.06887763,1.49980802 Z M2.77728298,1.63218416 L3.84797703,5.286456 L7.85697126,4.30852626 L6.77819119,0.654254421 L2.77728298,1.63218416 Z M4.30659479,4.56589309 L7.41391029,3.80117805 L7.24515864,3.23506735 L4.13775525,3.99970212 L4.30659479,4.56589309 Z M5.21662321,3.12476728 L7.08422934,2.66887638 L6.91512612,2.10260513 L5.0474321,2.55857631 L5.21662321,3.12476728 Z" id="形状"></path>
            </g>
        </g>
    </g>
</svg>